Coordinates
version=1
nRows=14
nColumns=40
inDegrees=yes

Units are S.I. units (second, meters, Newtons, ...)
If the header above contains a line with 'inDegrees', this indicates whether rotational values are in degrees (yes) or radians (no).

endheader
time	pelvis_tilt	pelvis_list	pelvis_rotation	pelvis_tx	pelvis_ty	pelvis_tz	hip_flexion_r	hip_adduction_r	hip_rotation_r	knee_angle_r	knee_angle_r_beta	ankle_angle_r	subtalar_angle_r	mtp_angle_r	hip_flexion_l	hip_adduction_l	hip_rotation_l	knee_angle_l	knee_angle_l_beta	ankle_angle_l	subtalar_angle_l	mtp_angle_l	lumbar_extension	lumbar_bending	lumbar_rotation	arm_flex_r	arm_add_r	arm_rot_r	elbow_flex_r	pro_sup_r	wrist_flex_r	wrist_dev_r	arm_flex_l	arm_add_l	arm_rot_l	elbow_flex_l	pro_sup_l	wrist_flex_l	wrist_dev_l
      0.30000000	    -12.67923701	      5.60451867	     -1.72169675	      0.23831739	      0.85312149	     -0.23974748	     41.12522049	    -10.69718621	     -8.43468612	     37.09980926	      0.64751382	      8.07079842	      0.00000000	      0.00000000	     10.50462236	      9.37802028	     -5.75177958	     12.52087507	      0.21853050	      9.69086287	      0.00000000	      0.00000000	      8.68102484	     -3.84778910	      3.16930736	    -15.63820900	     -7.01332295	     -2.95545717	     42.25931609	     88.92022431	    -15.09945792	      3.71004664	      7.20589051	    -12.36749131	     18.51135894	     56.21341510	     89.37079945	    -19.23816430	      1.03349013
      0.31000000	    -13.04793514	      4.92963241	     -0.80336062	      0.25869343	      0.85183679	     -0.24077118	     42.24642417	    -10.17742768	    -10.98012401	     32.82745771	      0.57294722	      6.87665929	      0.00000000	      0.00000000	      8.42394496	      8.97040896	     -4.69640290	     10.64878341	      0.18585633	      9.28000461	      0.00000000	      0.00000000	      8.86933363	     -3.33487379	      2.53766342	    -16.76810187	     -7.12459901	     -4.11931112	     40.83586710	     88.90824941	    -15.33607734	      3.92629116	      9.01177781	    -12.18101632	     19.09769346	     59.14217727	     89.38685592	    -19.17692413	      0.36140726
      0.32000000	    -12.56315806	      3.77560738	      0.76311424	      0.27915304	      0.85130267	     -0.24248215	     41.93536963	     -9.70307481	    -14.72558738	     28.20064782	      0.49219416	      5.61861196	      0.00000000	      0.00000000	      5.59915624	      8.03699408	     -2.90703274	      9.21141100	      0.16076945	      9.49909577	      0.00000000	      0.00000000	      7.94978241	     -2.44732433	      1.11674394	    -17.64799854	     -7.32262888	     -5.12585287	     39.71092726	     88.89746560	    -15.52488204	      3.92698324	     11.03071554	    -11.97480994	     19.76511037	     61.90506151	     89.39779346	    -19.16312734	     -0.76106398
      0.33000000	    -12.87234234	      3.40528723	      1.65594335	      0.29939519	      0.84870384	     -0.24302230	     42.91905176	     -9.26380728	    -16.54014775	     24.03919413	      0.41956309	      3.85493206	      0.00000000	      0.00000000	      3.71326685	      7.75575356	     -2.02125903	      7.76166475	      0.13546661	      9.14535894	      0.00000000	      0.00000000	      8.10318174	     -2.33369296	      0.58215144	    -18.54793304	     -7.36671054	     -6.12075193	     38.56537618	     88.88480607	    -15.80795522	      4.06795037	     12.87195011	    -11.88240269	     20.41698162	     64.65670121	     89.41040105	    -19.12470315	     -1.40050178
      0.34000000	    -12.57203353	      2.72804847	      2.94309476	      0.31999387	      0.84653862	     -0.24398412	     42.92093696	     -8.83327752	    -18.93430401	     19.94984492	      0.34819048	      2.07313638	      0.00000000	      0.00000000	      1.32606069	      7.06139716	     -0.92660291	      6.68091783	      0.11660401	      9.21599590	      0.00000000	      0.00000000	      7.53284124	     -1.91743161	     -0.40132070	    -19.32426346	     -7.45687167	     -7.07680732	     37.71992234	     88.88286125	    -16.20647101	      3.98123871	     14.80964415	    -11.76774127	     21.12997984	     67.17241892	     89.42336853	    -19.17021747	     -2.35634386
      0.35000000	    -12.76762208	      2.73964045	      3.85763848	      0.34036560	      0.84306458	     -0.24420763	     43.70988710	     -8.68656078	    -19.41591259	     16.52979441	      0.28849934	      0.38790054	      0.00000000	      0.00000000	     -0.35761816	      7.02784203	     -0.29306289	      5.94964469	      0.10384089	      9.02193168	      0.00000000	      0.00000000	      7.57537897	     -2.27695524	     -0.88294841	    -19.97699243	     -7.41432672	     -7.89625264	     36.83013984	     88.86008444	    -16.54508843	      4.05761603	     16.63028503	    -11.82102430	     21.85904348	     69.67430731	     89.42987945	    -19.14981875	     -3.02168608
      0.36000000	    -12.80288893	      2.67455988	      4.84306091	      0.36113529	      0.83966514	     -0.24452392	     44.14054400	     -8.59871991	    -19.91283001	     13.54125925	      0.23633956	     -1.34447564	      0.00000000	      0.00000000	     -2.07117156	      6.83224693	      0.24315427	      5.58177754	      0.09742040	      8.76910156	      0.00000000	      0.00000000	      7.47605569	     -2.54968801	     -1.43287600	    -20.54817843	     -7.37177678	     -8.73859187	     36.11585259	     88.85664533	    -16.96837217	      4.04260681	     18.35747854	    -11.80327103	     22.52961562	     71.90033302	     89.43869561	    -19.17695032	     -3.77737207
      0.37000000	    -12.29132691	      2.44732214	      5.82966732	      0.38245280	      0.83703642	     -0.24502922	     43.79711017	     -8.46547177	    -20.46760440	     11.15448148	      0.19468243	     -2.68720654	      0.00000000	      0.00000000	     -4.21194231	      6.34418212	      0.50969628	      5.54873220	      0.09684365	      8.47132548	      0.00000000	      0.00000000	      6.78108657	     -2.52913444	     -1.95028509	    -20.98066307	     -7.37106030	     -9.24383870	     35.41614729	     88.82175582	    -19.36889345	      2.94032397	     20.18928847	    -11.68042177	     23.75971571	     73.40173212	     89.43107555	    -22.44876274	     -6.98932841
      0.38000000	    -12.42536500	      2.54635936	      6.66679792	      0.40382245	      0.83360950	     -0.24528767	     44.15993600	     -8.63022674	    -20.17310750	      9.57148692	      0.16705396	     -3.80043651	      0.00000000	      0.00000000	     -5.38652001	      6.20675557	      0.51317313	      6.12488979	      0.10689949	      7.89865473	      0.00000000	      0.00000000	      6.90063311	     -2.94295886	     -2.40842697	    -21.28924570	     -7.37401977	     -9.91681416	     34.86255185	     88.80790154	    -19.59293694	      3.01785651	     21.46379708	    -11.69143831	     24.17165216	     75.24788414	     89.44090057	    -22.44472420	     -7.56239701
      0.39000000	    -12.31121002	      2.48410697	      7.44093959	      0.42565179	      0.83088712	     -0.24545287	     44.09290894	     -8.70056981	    -20.03361298	      8.66228352	      0.15118537	     -4.60125930	      0.00000000	      0.00000000	     -6.60057656	      5.78968258	      0.35311463	      7.12415319	      0.12433993	      7.12793866	      0.00000000	      0.00000000	      6.75465411	     -3.09235083	     -2.91691175	    -21.42558271	     -7.41768621	    -10.58914818	     34.49559769	     88.82582954	    -20.07471747	      2.94814765	     22.45224045	    -11.70676598	     24.39091026	     76.90531628	     89.44746614	    -22.73972061	     -8.72889316
      0.40000000	    -12.13251929	      2.28480013	      8.12081765	      0.44798625	      0.82873690	     -0.24561297	     43.78281202	     -8.67006333	    -19.99300103	      8.37212479	      0.14612114	     -4.94642953	      0.00000000	      0.00000000	     -7.55629126	      5.15185458	     -0.11994245	      8.69422447	      0.15174284	      5.94717352	      0.00000000	      0.00000000	      6.66412714	     -3.03709329	     -3.42986143	    -21.38643584	     -7.55696105	    -10.88839490	     34.15199778	     88.81148333	    -21.17161661	      2.66429656	     23.07525677	    -11.70260093	     24.56393706	     78.15735527	     89.44693382	    -24.22653006	    -11.00919087
      0.41000000	    -12.15914047	      2.10308929	      8.61547588	      0.47059685	      0.82674884	     -0.24550065	     43.67704993	     -8.63789154	    -19.76054371	      8.86457748	      0.15471606	     -5.12572796	      0.00000000	      0.00000000	     -7.96748776	      4.49167301	     -0.84523027	     10.82813007	      0.18898652	      4.40317039	      0.00000000	      0.00000000	      6.91067580	     -3.01356353	     -3.68176096	    -21.25409990	     -7.70559818	    -10.91867728	     33.70133583	     88.77495486	    -22.45511404	      2.20809156	     23.52132612	    -11.71952403	     25.03197662	     79.01816551	     89.43746953	    -27.45953169	    -13.29632695
      0.42000000	    -12.01422067	      1.81167322	      8.96445876	      0.49365066	      0.82550607	     -0.24517321	     43.27237323	     -8.45083819	    -19.55695371	      9.88411293	      0.17251031	     -5.12103806	      0.00000000	      0.00000000	     -8.25940483	      3.61386648	     -1.73772370	     13.38204174	      0.23356069	      2.28825443	      0.00000000	      0.00000000	      7.02517380	     -2.79517520	     -3.76389947	    -21.11095886	     -7.85342646	    -11.29344345	     33.68229858	     88.75975292	    -22.55958552	      2.19049589	     23.63091304	    -11.73530887	     24.98212176	     79.92181977	     89.44542506	    -27.54096791	    -13.69060891
      0.43000000	    -11.77942585	      1.36779717	      9.16631716	      0.51713030	      0.82492072	     -0.24458407	     42.69121339	     -8.06499891	    -19.40799308	     11.38129127	      0.19864101	     -5.04835854	      0.00000000	      0.00000000	     -8.31561171	      2.47863697	     -2.73149553	     16.36274062	      0.28558370	     -0.28293508	      0.00000000	      0.00000000	      7.11619026	     -2.33976322	     -3.79222953	    -20.83574339	     -8.04069696	    -11.60967321	     33.83299122	     88.76623467	    -22.69121297	      2.14631140	     23.34878476	    -11.79177918	     24.71496041	     80.66354583	     89.45299906	    -27.73360443	    -14.25613540
